<?xml version="1.0" standalone="no"?>
<!DOCTYPE svg PUBLIC "-//W3C//DTD SVG 20010904//EN"
 "http://www.w3.org/TR/2001/REC-SVG-20010904/DTD/svg10.dtd">
<svg version="1.0" xmlns="http://www.w3.org/2000/svg"
 width="472.000000pt" height="472.000000pt" viewBox="0 0 472.000000 472.000000"
 preserveAspectRatio="xMidYMid meet">
<metadata>
Created by potrace 1.14, written by Peter Selinger 2001-2017
</metadata>
<g transform="translate(0.000000,472.000000) scale(0.100000,-0.100000)"
fill="#000000" stroke="none">
<path d="M2015 4673 c-49 -25 -114 -54 -144 -64 -105 -37 -202 -104 -363 -253
-76 -69 -115 -114 -133 -150 -14 -28 -48 -82 -75 -121 -27 -38 -72 -108 -101
-155 -47 -76 -53 -91 -57 -155 -4 -58 0 -80 18 -123 13 -29 34 -62 49 -73 23
-18 26 -30 33 -107 4 -49 23 -144 44 -217 44 -156 70 -256 79 -310 11 -63 17
-43 66 205 6 30 38 137 70 238 33 101 57 187 54 192 -9 15 21 117 49 164 14
24 35 50 48 59 13 8 32 23 43 33 22 20 37 26 70 28 11 1 30 7 42 14 12 6 35
12 50 12 20 0 39 10 59 31 38 41 107 71 170 74 28 2 65 10 82 19 17 9 39 16
50 16 10 0 23 5 29 11 9 9 20 9 44 -2 25 -10 34 -10 37 -1 2 7 13 10 27 6 12
-3 26 -1 29 5 10 15 46 14 80 -4 35 -19 37 -19 30 0 -4 9 0 15 9 15 16 0 30
-26 22 -40 -3 -5 -1 -11 5 -15 6 -4 10 5 10 20 0 23 3 25 28 19 70 -16 164
-54 193 -78 17 -14 37 -26 45 -26 8 0 14 -6 14 -13 0 -8 20 -28 45 -46 25 -18
49 -41 55 -51 5 -10 26 -28 46 -40 19 -13 40 -32 45 -44 25 -57 67 -111 85
-111 20 0 29 -16 84 -137 17 -38 34 -68 39 -68 14 0 68 -133 70 -174 1 -22 4
-43 7 -48 3 -4 -2 -8 -10 -8 -9 0 -16 -4 -16 -8 0 -4 -31 23 -70 60 l-69 69
-58 -2 c-32 -1 -84 -8 -116 -16 -31 -8 -63 -11 -70 -6 -19 12 -59 15 -66 6 -3
-5 -22 -19 -42 -31 -39 -23 -78 -62 -63 -62 6 0 15 5 22 12 8 8 12 8 12 1 0
-6 -7 -17 -16 -24 -15 -12 -14 -14 9 -20 14 -4 54 -1 89 7 105 23 277 29 319
11 35 -16 70 -47 53 -47 -5 -1 4 -11 20 -25 16 -13 34 -38 40 -56 16 -46 41
-53 32 -8 -6 33 -6 33 12 13 29 -31 39 -54 46 -109 4 -27 14 -85 23 -128 12
-60 14 -127 11 -300 -5 -287 -28 -388 -113 -506 -14 -18 -27 -50 -31 -70 -3
-20 -31 -92 -61 -161 -56 -127 -102 -190 -140 -190 -10 0 -27 -14 -37 -30 -20
-34 -117 -110 -141 -110 -8 0 -15 -4 -15 -8 0 -5 -12 -14 -26 -21 -14 -6 -42
-24 -62 -40 -44 -35 -98 -51 -172 -49 -44 0 -60 6 -81 25 -23 21 -27 22 -33 8
-3 -10 -12 -15 -21 -11 -8 3 -15 0 -15 -7 0 -7 -10 3 -21 21 -16 24 -26 31
-41 26 -10 -3 -24 -2 -31 3 -14 11 -23 10 -62 -6 -23 -10 -38 -10 -61 -2 -17
6 -40 11 -51 11 -22 0 -58 -37 -68 -71 -6 -18 -35 -26 -48 -12 -4 3 -29 14
-57 24 -27 9 -63 27 -79 38 -16 12 -36 21 -46 21 -9 0 -38 23 -65 52 -27 29
-52 49 -56 45 -8 -8 -85 44 -141 96 -35 32 -43 36 -43 20 0 -10 7 -30 17 -43
27 -41 255 -272 300 -305 23 -16 62 -47 87 -69 52 -44 111 -67 140 -56 12 4
34 3 51 -2 16 -5 82 -13 145 -19 65 -6 125 -17 137 -25 22 -14 102 -13 198 1
22 4 26 2 15 -5 -11 -7 -6 -10 21 -10 48 0 144 65 216 147 31 35 62 63 69 63
8 0 14 5 14 10 0 15 36 12 50 -5 6 -8 17 -13 23 -12 8 1 11 -26 10 -87 -2 -76
0 -87 12 -75 49 50 76 277 37 312 -16 14 -17 26 -11 71 8 61 11 68 85 181 54
83 106 188 139 277 14 42 20 48 44 48 26 0 28 3 27 38 -1 32 2 37 24 41 14 1
28 8 32 15 13 19 9 46 -7 46 -17 0 -20 21 -6 48 26 53 40 92 49 132 13 57 15
210 3 210 -15 0 -24 -61 -22 -148 1 -57 -3 -92 -14 -112 -21 -41 -36 -38 -23
6 6 25 6 45 -2 67 -13 38 -31 213 -24 232 5 12 40 26 54 23 3 -1 15 4 28 11
33 17 31 73 -4 100 -15 12 -33 21 -40 21 -39 0 -20 68 72 255 76 153 104 265
108 422 1 56 4 104 7 107 3 3 45 12 94 21 106 18 157 49 193 116 18 34 22 53
17 84 -3 22 -6 78 -5 125 1 68 -3 93 -20 125 -12 22 -30 67 -41 99 -11 33 -27
69 -35 80 -8 11 -14 28 -14 38 0 10 -15 35 -34 55 -18 21 -37 49 -41 63 -4 13
-32 49 -62 79 -30 29 -63 72 -73 95 -36 83 -105 125 -205 126 -57 0 -61 2 -83
35 l-22 35 -598 -1 -597 0 -90 -46z m1215 -48 c7 -8 8 -15 2 -15 -5 0 -15 7
-22 15 -7 8 -8 15 -2 15 5 0 15 -7 22 -15z m-2035 -844 c-3 -6 -11 -11 -17
-11 -6 0 -6 6 2 15 14 17 26 13 15 -4z m2246 -1082 c9 -18 7 -25 -10 -42 l-21
-21 0 42 c0 46 13 54 31 21z"/>
<path d="M1652 3343 c-47 -26 -90 -70 -112 -114 -26 -50 -25 -57 3 -32 65 58
237 138 237 109 0 -7 -12 -17 -27 -23 l-28 -11 25 -1 c14 -1 72 -10 130 -22
120 -24 222 -31 217 -15 -2 6 -22 25 -45 43 -45 34 -169 69 -222 61 -16 -3
-31 0 -33 5 -2 6 -28 12 -58 14 -39 3 -63 -1 -87 -14z"/>
<path d="M2737 3279 c-22 -11 -37 -22 -34 -25 2 -2 24 7 48 21 52 30 41 33
-14 4z"/>
<path d="M3160 3165 c7 -8 17 -15 22 -15 6 0 5 7 -2 15 -7 8 -17 15 -22 15 -6
0 -5 -7 2 -15z"/>
<path d="M2029 3060 c70 -33 75 -35 66 -20 -9 15 -56 37 -95 44 -28 5 -22 0
29 -24z"/>
<path d="M1789 3057 c-20 -8 -57 -26 -84 -40 -61 -34 -65 -34 -30 3 31 32 21
41 -14 12 -14 -11 -24 -32 -27 -59 -5 -42 -5 -42 28 -40 18 1 49 -2 68 -7 l35
-8 -27 22 c-37 29 -35 44 8 69 47 28 64 27 64 -4 0 -14 12 -38 28 -55 25 -29
30 -30 75 -24 39 6 51 12 62 35 8 15 15 35 15 43 0 8 4 17 8 20 10 6 111 -64
112 -76 0 -5 -29 -8 -64 -8 -36 0 -68 -5 -72 -11 -4 -8 17 -10 72 -7 51 2 79
8 82 16 5 17 -59 77 -111 103 -52 27 -176 35 -228 16z m89 -44 c-5 -25 -28
-28 -28 -4 0 12 6 21 16 21 9 0 14 -7 12 -17z m57 -13 c-5 -8 -11 -8 -17 -2
-6 6 -7 16 -3 22 5 8 11 8 17 2 6 -6 7 -16 3 -22z"/>
<path d="M2714 3056 c-17 -8 -34 -21 -37 -30 -8 -20 -8 -20 44 4 26 12 64 19
94 19 l50 -1 -50 -12 c-27 -7 -63 -20 -80 -28 -36 -19 -85 -63 -85 -76 0 -14
37 -22 95 -21 l50 1 -43 13 c-24 8 -49 11 -57 8 -8 -3 -15 -1 -15 3 1 12 40
39 83 57 l36 16 7 -35 c3 -19 10 -37 15 -40 15 -9 10 -24 -8 -25 -30 -1 17
-17 51 -18 16 -1 37 -7 45 -15 22 -19 249 -27 256 -9 2 7 11 13 20 13 30 0 16
46 -26 84 -51 46 -66 52 -219 82 -142 27 -182 29 -226 10z m158 -71 c0 -5 -5
-11 -11 -13 -6 -2 -11 4 -11 13 0 9 5 15 11 13 6 -2 11 -8 11 -13z m58 -5 c0
-5 -4 -10 -10 -10 -5 0 -10 5 -10 10 0 6 5 10 10 10 6 0 10 -4 10 -10z m107
-22 c13 -12 23 -27 23 -34 0 -14 -51 -34 -86 -34 l-23 0 22 45 c12 24 26 44
31 45 6 0 20 -10 33 -22z"/>
<path d="M2168 2478 c-51 -18 -34 -36 32 -35 33 1 60 5 60 9 0 7 -54 39 -62
37 -2 0 -15 -5 -30 -11z"/>
<path d="M2465 2450 c-31 -21 -64 -59 -65 -75 0 -5 7 1 16 14 21 29 72 51 121
51 l38 1 -25 14 c-34 19 -50 18 -85 -5z"/>
<path d="M1306 2422 c-4 -7 -9 -33 -12 -59 -4 -39 2 -65 31 -138 27 -66 34
-79 30 -50 -3 22 -10 81 -14 130 -7 90 -22 138 -35 117z"/>
<path d="M2067 2385 c3 -9 19 -23 34 -31 27 -13 32 -13 59 3 17 9 30 23 30 30
0 17 -41 16 -66 -1 -16 -13 -22 -13 -41 0 -20 12 -22 12 -16 -1z"/>
<path d="M2666 2383 c-5 -5 -44 -8 -88 -8 -65 0 -83 -3 -91 -17 -16 -24 -6
-29 31 -16 26 10 37 10 53 0 26 -17 84 1 99 29 11 20 9 25 -4 12z"/>
<path d="M2313 2193 c9 -9 19 -14 23 -11 10 10 -6 28 -24 28 -15 0 -15 -1 1
-17z"/>
<path d="M2556 2055 c4 -10 0 -15 -11 -15 -15 0 -14 -3 4 -17 21 -17 17 -18
-121 -21 -106 -2 -156 1 -193 13 -27 8 -70 15 -96 15 -25 0 -50 5 -56 11 -8 8
-28 5 -74 -9 -35 -12 -75 -23 -89 -26 -62 -14 -62 -44 0 -64 55 -17 70 -15 70
8 0 26 24 37 107 52 58 9 84 9 154 -4 49 -9 124 -15 182 -13 98 3 227 -20 234
-42 5 -13 -61 -63 -81 -63 -9 0 -16 -4 -16 -10 0 -14 44 -12 58 2 10 10 14 10
21 0 6 -10 18 -5 48 20 22 18 49 38 59 44 16 10 17 13 5 28 -7 9 -19 16 -25
16 -6 0 -40 20 -75 45 -65 45 -116 60 -105 30z"/>
<path d="M2215 1773 c-11 -3 -24 -9 -29 -13 -11 -11 30 -32 57 -29 27 3 87
-27 87 -43 0 -9 3 -9 12 0 7 7 21 12 31 12 10 0 21 9 24 20 6 21 28 27 38 10
9 -15 42 -12 48 5 8 19 2 22 -74 34 -65 11 -158 13 -194 4z"/>
<path d="M1555 1470 c3 -5 8 -10 11 -10 2 0 4 5 4 10 0 6 -5 10 -11 10 -5 0
-7 -4 -4 -10z"/>
<path d="M1478 1430 c-20 -17 -91 -95 -157 -173 -168 -200 -244 -266 -383
-331 -125 -59 -411 -157 -528 -181 -41 -8 -150 -34 -242 -57 l-168 -42 0 -323
0 -323 810 0 810 0 -5 23 c-8 34 -64 297 -96 452 -83 405 -92 554 -44 780 15
72 33 145 41 164 8 18 14 35 14 37 0 11 -19 1 -52 -26z"/>
<path d="M2410 1426 c0 -9 5 -16 10 -16 6 0 10 4 10 9 0 6 -4 13 -10 16 -5 3
-10 -1 -10 -9z"/>
<path d="M3160 1404 c0 -5 9 -28 19 -50 28 -58 60 -194 73 -312 13 -119 -3
-580 -27 -792 -8 -69 -18 -153 -21 -187 l-7 -63 762 0 761 0 0 289 0 289 -62
21 c-35 11 -169 50 -298 86 -308 87 -440 132 -602 203 -73 33 -144 63 -156 67
-28 8 -118 99 -235 235 -111 128 -207 227 -207 214z"/>
<path d="M1577 1374 c-11 -11 18 -154 31 -154 5 0 5 30 1 68 -5 37 -8 73 -8
80 -1 13 -13 16 -24 6z"/>
<path d="M1973 465 c-60 -40 -69 -51 -48 -59 8 -3 15 -11 15 -17 0 -6 13 -26
29 -44 29 -34 116 -182 167 -287 l28 -58 183 0 183 0 14 33 c13 33 43 77 139
207 92 125 98 131 115 126 9 -3 23 -2 29 2 9 6 -5 26 -46 66 l-58 57 -279 1
c-153 0 -305 -3 -336 -7 -41 -5 -58 -4 -58 4 0 19 -24 12 -77 -24z"/>
</g>
</svg>
