<svg class="dc-svg" width="30" height="30" viewBox="0 0 30 30" fill="none" xmlns="http://www.w3.org/2000/svg">
<path d="M11.25 22.5357C5.8925 24.2232 6.1425 19.0982 4 18.5357M19.8214 27.5357V20.4107C19.8214 19.1607 19.8559 18.2795 19.1071 17.5357C22.5959 17.1607 25.5357 15.9175 25.5357 10.075C25.5308 8.57016 24.932 7.12811 23.8694 6.0625C24.1202 5.41689 24.2404 4.72799 24.2233 4.03561C24.2061 3.34324 24.0519 2.66114 23.7694 2.02875C23.7694 2.02875 22.4569 1.65375 19.4244 3.6125C16.8745 2.94785 14.1968 2.94785 11.6469 3.6125C8.6132 1.65375 7.30195 2.02875 7.30195 2.02875C7.01953 2.66114 6.86528 3.34324 6.84811 4.03561C6.83095 4.72799 6.95121 5.41689 7.20195 6.0625C6.67184 6.59403 6.2518 7.22491 5.96588 7.91902C5.67996 8.61312 5.53377 9.35681 5.5357 10.1075C5.5357 15.9075 8.47554 17.1182 11.9643 17.5357C11.2255 18.272 11.175 19.5145 11.25 20.5357V27.5357" stroke="#222222" stroke-width="2" stroke-linecap="round" stroke-linejoin="round" data-darkreader-inline-stroke="" style="--darkreader-inline-stroke:#d3cfc9;"></path>
</svg>