<?xml version="1.0" encoding="UTF-8" standalone="no" ?>
<!DOCTYPE svg PUBLIC "-//W3C//DTD SVG 1.1//EN" "http://www.w3.org/Graphics/SVG/1.1/DTD/svg11.dtd">
<svg xmlns="http://www.w3.org/2000/svg" xmlns:xlink="http://www.w3.org/1999/xlink" version="1.1" width="1080" height="1080" viewBox="0 0 1080 1080" xml:space="preserve">
<desc>Created with Fabric.js 5.2.4</desc>
<defs>
</defs>
<g transform="matrix(1 0 0 1 540 540)" id="1b3e4efc-1b12-4da5-a75b-3738e07fa820"  >
</g>
<g transform="matrix(1 0 0 1 540 540)" id="0cccae1a-c33c-445b-a829-fcd9bcf6df0f"  >
<rect style="stroke: none; stroke-width: 1; stroke-dasharray: none; stroke-linecap: butt; stroke-dashoffset: 0; stroke-linejoin: miter; stroke-miterlimit: 4; fill: rgb(255,255,255); fill-rule: nonzero; opacity: 1; visibility: hidden;" vector-effect="non-scaling-stroke"  x="-540" y="-540" rx="0" ry="0" width="1080" height="1080" />
</g>
<g transform="matrix(-1.28 0 0 1.24 540 592.41)"  >
<g style="" vector-effect="non-scaling-stroke"   >
		<g transform="matrix(1 0 0 1 154.74 -182.69)" id="e81a7c33-c795-457d-8abc-c4a3c260cd56"  >
<rect style="stroke: none; stroke-width: 1; stroke-dasharray: none; stroke-linecap: butt; stroke-dashoffset: 0; stroke-linejoin: miter; stroke-miterlimit: 4; fill: rgb(230,230,230); fill-rule: nonzero; opacity: 1;" vector-effect="non-scaling-stroke"  x="-231.82" y="-110.005" rx="0" ry="0" width="463.64" height="220.01" />
</g>
		<g transform="matrix(1 0 0 1 154.74 -182.04)" id="be98c830-918a-42d1-b1b0-0085d5874e90"  >
<rect style="stroke: none; stroke-width: 1; stroke-dasharray: none; stroke-linecap: butt; stroke-dashoffset: 0; stroke-linejoin: miter; stroke-miterlimit: 4; fill: rgb(255,255,255); fill-rule: nonzero; opacity: 1;" vector-effect="non-scaling-stroke"  x="-218.565" y="-91.78" rx="0" ry="0" width="437.13" height="183.56" />
</g>
		<g transform="matrix(1 0 0 1 154.54 -295.55)" id="ea07d9fd-7a34-4098-acd7-056fd1871281"  >
<rect style="stroke: none; stroke-width: 1; stroke-dasharray: none; stroke-linecap: butt; stroke-dashoffset: 0; stroke-linejoin: miter; stroke-miterlimit: 4; fill: rgb(33,150,243); fill-rule: nonzero; opacity: 1;" vector-effect="non-scaling-stroke"  x="-231.82" y="-9.85" rx="0" ry="0" width="463.64" height="19.7" />
</g>
		<g transform="matrix(1 0 0 1 -62.64 -293.82)" id="b9ed5a45-8896-4ed9-86b4-15f853c9a185"  >
<circle style="stroke: none; stroke-width: 1; stroke-dasharray: none; stroke-linecap: butt; stroke-dashoffset: 0; stroke-linejoin: miter; stroke-miterlimit: 4; fill: rgb(255,255,255); fill-rule: nonzero; opacity: 1;" vector-effect="non-scaling-stroke"  cx="0" cy="0" r="3.65074" />
</g>
		<g transform="matrix(1 0 0 1 -48.79 -293.82)" id="a9233a38-f8ba-48e0-88f3-496fd4836d40"  >
<circle style="stroke: none; stroke-width: 1; stroke-dasharray: none; stroke-linecap: butt; stroke-dashoffset: 0; stroke-linejoin: miter; stroke-miterlimit: 4; fill: rgb(255,255,255); fill-rule: nonzero; opacity: 1;" vector-effect="non-scaling-stroke"  cx="0" cy="0" r="3.65074" />
</g>
		<g transform="matrix(1 0 0 1 -34.93 -293.82)" id="aa82180f-a6a9-4f5f-82fc-e73106f4ad92"  >
<circle style="stroke: none; stroke-width: 1; stroke-dasharray: none; stroke-linecap: butt; stroke-dashoffset: 0; stroke-linejoin: miter; stroke-miterlimit: 4; fill: rgb(255,255,255); fill-rule: nonzero; opacity: 1;" vector-effect="non-scaling-stroke"  cx="0" cy="0" r="3.65074" />
</g>
		<g transform="matrix(1 0 0 1 234.05 -182.05)"  >
<rect style="stroke: none; stroke-width: 1; stroke-dasharray: none; stroke-linecap: butt; stroke-dashoffset: 0; stroke-linejoin: miter; stroke-miterlimit: 4; fill: rgb(242,242,242); fill-rule: nonzero; opacity: 1;" vector-effect="non-scaling-stroke"  x="-36.34" y="-62.075" rx="0" ry="0" width="72.68" height="124.15" />
</g>
		<g transform="matrix(1 0 0 1 112.38 -227.03)"  >
<rect style="stroke: none; stroke-width: 1; stroke-dasharray: none; stroke-linecap: butt; stroke-dashoffset: 0; stroke-linejoin: miter; stroke-miterlimit: 4; fill: rgb(33,150,243); fill-rule: nonzero; opacity: 1;" vector-effect="non-scaling-stroke"  x="-73.295" y="-17.09" rx="0" ry="0" width="146.59" height="34.18" />
</g>
		<g transform="matrix(1 0 0 1 112.38 -182.05)"  >
<rect style="stroke: none; stroke-width: 1; stroke-dasharray: none; stroke-linecap: butt; stroke-dashoffset: 0; stroke-linejoin: miter; stroke-miterlimit: 4; fill: rgb(242,242,242); fill-rule: nonzero; opacity: 1;" vector-effect="non-scaling-stroke"  x="-73.295" y="-18.385" rx="0" ry="0" width="146.59" height="36.77" />
</g>
		<g transform="matrix(1 0 0 1 112.38 -137.05)"  >
<rect style="stroke: none; stroke-width: 1; stroke-dasharray: none; stroke-linecap: butt; stroke-dashoffset: 0; stroke-linejoin: miter; stroke-miterlimit: 4; fill: rgb(242,242,242); fill-rule: nonzero; opacity: 1;" vector-effect="non-scaling-stroke"  x="-73.295" y="-17.09" rx="0" ry="0" width="146.59" height="34.18" />
</g>
		<g transform="matrix(1 0 0 1 -224.59 21.39)"  >
<path style="stroke: none; stroke-width: 1; stroke-dasharray: none; stroke-linecap: butt; stroke-dashoffset: 0; stroke-linejoin: miter; stroke-miterlimit: 4; fill: rgb(159,97,106); fill-rule: nonzero; opacity: 1;" vector-effect="non-scaling-stroke"  transform=" translate(-375.41, -471.38)" d="M 434.6459 511.69953 C 434.67425060148446 506.60892799100816 432.5297324841305 501.74796271063167 428.7507554597466 498.33704418042095 C 424.97177843536264 494.9261256502102 419.9172366198685 493.28919301625564 414.85614 493.83722 C 414.06443196256436 493.92692802568797 413.2799130797969 494.0715328567896 412.50825 494.26999 L 352.04413999999997 442.44257 L 355.65732999999994 422.96708 L 325.85552999999993 413.30896 L 316.8701299999999 444.51966 C 314.6875491137445 452.2114258790852 317.8094312373464 460.42407495002664 324.5503299999999 464.72375 L 398.9316899999999 511.76867 C 398.93211855350347 512.353767624685 398.9626321718735 512.9384562155809 399.0231099999999 513.52042 C 399.57244444757197 518.581888145627 402.25497415602734 523.1686121889963 406.39710444105873 526.1288461031172 C 410.53923472609017 529.0890800172382 415.74750997703626 530.141635002572 420.7141099999999 529.02221 C 421.42788256874167 528.8641013604819 422.13096906357725 528.6611181882494 422.8191799999999 528.4144699999999 C 429.86981027202785 525.8653779457464 434.58833513826255 519.1965923460518 434.6459 511.69953 Z" stroke-linecap="round" />
</g>
		<g transform="matrix(1 0 0 1 -242.6 143.73)"  >
<path style="stroke: none; stroke-width: 1; stroke-dasharray: none; stroke-linecap: butt; stroke-dashoffset: 0; stroke-linejoin: miter; stroke-miterlimit: 4; fill: rgb(63,61,86); fill-rule: nonzero; opacity: 1;" vector-effect="non-scaling-stroke"  transform=" translate(-357.4, -593.73)" d="M 284.32471 571.80732 L 362.28270999999995 571.80732 C 362.28270999999995 574.04817 442.62807999999995 575.86681 442.62807999999995 575.86681 C 443.8891532901154 576.8163737833773 445.03849429122175 577.9058624996012 446.05407999999994 579.1143999999999 C 449.1058366673661 582.7541673373292 450.7738349386023 587.3549255062591 450.7637199999999 592.1047699999999 L 450.7637199999999 595.3523599999999 C 450.7595863138308 606.5606060879153 441.6745460838369 615.6456552698256 430.4663 615.6498 L 284.32471 615.6498 C 273.11877687606557 615.640068369481 264.03700163051894 606.5582931239344 264.02727 595.35236 L 264.02727 592.10477 C 264.04281410756 580.9012467043513 273.1211867120107 571.8228696272317 284.32471 571.80732 Z" stroke-linecap="round" />
</g>
		<g transform="matrix(1 0 0 1 -241.42 233.04)"  >
<rect style="stroke: none; stroke-width: 1; stroke-dasharray: none; stroke-linecap: butt; stroke-dashoffset: 0; stroke-linejoin: miter; stroke-miterlimit: 4; fill: rgb(63,61,86); fill-rule: nonzero; opacity: 1;" vector-effect="non-scaling-stroke"  x="-10.555" y="-68.2" rx="0" ry="0" width="21.11" height="136.4" />
</g>
		<g transform="matrix(1 0 0 1 -242.24 292.26)"  >
<path style="stroke: none; stroke-width: 1; stroke-dasharray: none; stroke-linecap: butt; stroke-dashoffset: 0; stroke-linejoin: miter; stroke-miterlimit: 4; fill: rgb(63,61,86); fill-rule: nonzero; opacity: 1;" vector-effect="non-scaling-stroke"  transform=" translate(-357.76, -742.27)" d="M 429.20555 752.939 C 429.20555 755.4928 397.21765 753.92688 357.75855 753.92688 C 318.29945000000004 753.92688 286.31155 755.49288 286.31155 752.939 C 286.31155 750.3851199999999 318.29945000000004 730.13316 357.75855 730.13316 C 397.21765 730.13316 429.20555 750.3851 429.20555 752.939 Z" stroke-linecap="round" />
</g>
		<g transform="matrix(1 0 0 1 -175.16 258.7)"  >
<polygon style="stroke: none; stroke-width: 1; stroke-dasharray: none; stroke-linecap: butt; stroke-dashoffset: 0; stroke-linejoin: miter; stroke-miterlimit: 4; fill: rgb(159,97,106); fill-rule: nonzero; opacity: 1;" vector-effect="non-scaling-stroke"  points="-14.69,25.82 5.22,25.81 14.69,-25.82 -14.69,-25.82 -14.69,25.82 " />
</g>
		<g transform="matrix(1 0 0 1 -162.83 290.91)"  >
<path style="stroke: none; stroke-width: 1; stroke-dasharray: none; stroke-linecap: butt; stroke-dashoffset: 0; stroke-linejoin: miter; stroke-miterlimit: 4; fill: rgb(47,46,65); fill-rule: nonzero; opacity: 1;" vector-effect="non-scaling-stroke"  transform=" translate(-437.17, -740.91)" d="M 405.0721 753.81057 L 469.26158 753.80819 L 469.26158 752.9963 C 469.26166752196065 746.3701827415001 466.6295318359426 740.0154202503097 461.94421471269334 735.3299924805497 C 457.25889758944413 730.6445647107896 450.9041972587192 728.0122789558355 444.27808 728.01221 L 444.27549999999997 728.01221 L 405.07090999999997 728.01379 Z" stroke-linecap="round" />
</g>
		<g transform="matrix(1 0 0 1 -209.43 162.84)"  >
<path style="stroke: none; stroke-width: 1; stroke-dasharray: none; stroke-linecap: butt; stroke-dashoffset: 0; stroke-linejoin: miter; stroke-miterlimit: 4; fill: rgb(203,203,203); fill-rule: nonzero; opacity: 1;" vector-effect="non-scaling-stroke"  transform=" translate(-390.57, -612.83)" d="M 439.924 702.4959 L 479.61105 613.49944 C 486.48236406897007 597.944386268712 480.2494291598223 579.7202899175384 465.29143999999997 571.63121 L 379.20844 525.47038 L 339.92694 522.12923 L 303.69244000000003 518.83565 L 303.43119 519.27807 C 303.09699 519.8426 295.30626 533.29917 300.5725 548.05446 C 304.56707 559.2466 314.9575 567.9887699999999 331.45514 574.0383599999999 C 369.9624 588.1577699999999 414.44590999999997 600.2253599999999 431.78358 604.75736 C 433.33342160208264 605.1536960221637 434.6399845274034 606.1935243355196 435.37408 607.6148599999999 C 436.1097711053211 609.0189407517274 436.22532513158075 610.6665554038661 435.69282 612.1595799999999 L 398.82211 694.997 C 398.0416769945301 697.1262924407467 398.2941359003123 699.4972591849153 399.50543810805965 701.4144730320785 C 400.716740315807 703.3316868792417 402.74957044675597 704.5778090481192 405.00768 704.78734 L 432.55789 706.79334 Q 432.90873999999997 706.82664 433.25640999999996 706.82664 C 436.1389073351556 706.8256061861634 438.7510584518271 705.1289590727365 439.924 702.4959 Z" stroke-linecap="round" />
</g>
		<g transform="matrix(1 0 0 1 -188.15 258.7)"  >
<polygon style="stroke: none; stroke-width: 1; stroke-dasharray: none; stroke-linecap: butt; stroke-dashoffset: 0; stroke-linejoin: miter; stroke-miterlimit: 4; fill: rgb(159,97,106); fill-rule: nonzero; opacity: 1;" vector-effect="non-scaling-stroke"  points="-14.69,25.82 5.22,25.81 14.69,-25.82 -14.69,-25.82 -14.69,25.82 " />
</g>
		<g transform="matrix(1 0 0 1 -175.82 290.91)"  >
<path style="stroke: none; stroke-width: 1; stroke-dasharray: none; stroke-linecap: butt; stroke-dashoffset: 0; stroke-linejoin: miter; stroke-miterlimit: 4; fill: rgb(47,46,65); fill-rule: nonzero; opacity: 1;" vector-effect="non-scaling-stroke"  transform=" translate(-424.18, -740.91)" d="M 392.08174 753.81057 L 456.27121 753.80819 L 456.27121 752.9963 C 456.27130017415396 746.3701836610668 453.6391667125496 740.0154211443739 448.953851177204 735.329993087146 C 444.2685356418584 730.6445650299181 437.913836339188 728.012278955818 431.28772 728.01221 L 431.28513999999996 728.01221 L 392.08054999999996 728.01379 Z" stroke-linecap="round" />
</g>
		<g transform="matrix(1 0 0 1 -219.98 167.92)"  >
<path style="stroke: none; stroke-width: 1; stroke-dasharray: none; stroke-linecap: butt; stroke-dashoffset: 0; stroke-linejoin: miter; stroke-miterlimit: 4; fill: rgb(203,203,203); fill-rule: nonzero; opacity: 1;" vector-effect="non-scaling-stroke"  transform=" translate(-380.02, -617.92)" d="M 425.30988 707.36729 L 464.99693 618.3708300000001 C 471.8682399497259 602.8157731542561 465.6353066274642 584.591677090156 450.67732 576.50259 L 364.59432000000004 530.34177 L 325.31282000000004 527.00062 L 296.93216000000007 524.53878 L 296.93604000000005 524.14946 C 296.60185000000007 524.71398 288.8111200000001 538.1705499999999 294.07736000000006 552.92584 C 298.07193000000007 564.11798 300.3433600000001 572.86015 316.84102000000007 578.9097399999999 C 355.34828000000005 593.02915 399.83179000000007 605.09674 417.1694600000001 609.62874 C 418.71929985257555 610.0250795419524 420.0258614901141 611.0649068304266 420.7599600000001 612.48624 C 421.4956515926404 613.8903241965291 421.6112055918499 615.5379420883139 421.0787000000001 617.0309699999999 L 384.208 699.86833 C 383.4275631549629 701.9976236270588 383.68002013910024 704.3685933894634 384.89132276328365 706.2858098540212 C 386.10262538746707 708.2030263185788 388.1354579199065 709.4491499232556 390.39357 709.65868 L 417.94378 711.66468 Q 418.29463 711.69798 418.6423 711.69798 C 421.52478270020646 711.6969535990892 424.1369270092814 710.0003279511228 425.30988 707.36729 Z" stroke-linecap="round" />
</g>
		<g transform="matrix(1 0 0 1 -269.32 10.65)"  >
<path style="stroke: none; stroke-width: 1; stroke-dasharray: none; stroke-linecap: butt; stroke-dashoffset: 0; stroke-linejoin: miter; stroke-miterlimit: 4; fill: rgb(47,46,65); fill-rule: nonzero; opacity: 1;" vector-effect="non-scaling-stroke"  transform=" translate(-330.68, -460.65)" d="M 350.51745 526.16257 C 352.42024 524.81657 379.74577 539.15294 384.61716 527.7863699999999 C 361.88402 470.95352999999994 377.54954000000004 446.41203999999993 363.62438000000003 413.8211599999999 C 358.6551778335954 402.43249370345814 348.742330205979 393.9480363152641 336.72314000000006 390.79624999999993 L 300.59448000000003 388.97264999999993 L 300.40736000000004 389.06303999999994 C 283.66677868048606 397.2625436497547 274.2830889769126 415.4688214733736 277.31813000000005 433.8608699999999 C 277.44666000000007 469.3297299999999 298.66850000000005 496.38170999999994 291.24804000000006 522.1079199999999 C 290.6193201878422 524.281125664837 290.9030357073485 526.6166784364106 292.03378000000004 528.5761499999999 C 293.13048716362016 530.4706321551943 294.9614557484601 531.8275738959918 297.09307 532.3256199999998 L 344.79771 525.9620599999998 C 347.0521265801853 526.4983400490136 349.42829685961453 526.0384724388105 351.31985 524.6998099999998 Z" stroke-linecap="round" />
</g>
		<g transform="matrix(1 0 0 1 -287.35 -114.41)"  >
<circle style="stroke: none; stroke-width: 1; stroke-dasharray: none; stroke-linecap: butt; stroke-dashoffset: 0; stroke-linejoin: miter; stroke-miterlimit: 4; fill: rgb(159,97,106); fill-rule: nonzero; opacity: 1;" vector-effect="non-scaling-stroke"  cx="0" cy="0" r="39.88209" />
</g>
		<g transform="matrix(1 0 0 1 -289.49 -122.18)"  >
<path style="stroke: none; stroke-width: 1; stroke-dasharray: none; stroke-linecap: butt; stroke-dashoffset: 0; stroke-linejoin: miter; stroke-miterlimit: 4; fill: rgb(47,46,65); fill-rule: nonzero; opacity: 1;" vector-effect="non-scaling-stroke"  transform=" translate(-310.5, -327.82)" d="M 299.94834 372.20305 C 302.06734 373.13026 306.40668999999997 356.24549 304.46288999999996 352.8684 C 301.57213999999993 347.84611 301.74303 347.88219000000004 299.82401999999996 344.55946 C 297.90500999999995 341.23672999999997 297.47562999999997 336.68872 299.96068999999994 333.7651 C 302.4457499999999 330.84148000000005 308.19651999999996 331.22933 309.33068999999995 334.89496 C 308.60110999999995 327.93244000000004 315.4879399999999 322.33564 322.30960999999996 320.76285 C 329.13128 319.19006 336.32692999999995 320.16655000000003 343.18622999999997 318.76693 C 351.14678 317.14261 359.42932999999994 310.46978 356.25323 301.71593 C 355.70816847510395 300.2584981311885 354.89216183713353 298.91740901996855 353.8483 297.76348 C 350.17864 293.63748000000004 345.04542 291.87569 340.02647 290.17217 C 329.58537 286.62829999999997 318.85859 283.03992 307.83941000000004 283.43117 C 289.73402000000004 284.07394 272.61986 296.5898 266.51989000000003 313.64877 C 265.76050321149216 315.77727605390595 265.17220876270204 317.9629955172119 264.76061000000004 320.18511 C 260.97841000000005 340.52189 272.78813 360.58179 291.96929000000006 368.32601 Z" stroke-linecap="round" />
</g>
		<g transform="matrix(1 0 0 1 -106.68 45.02)"  >
<path style="stroke: none; stroke-width: 1; stroke-dasharray: none; stroke-linecap: butt; stroke-dashoffset: 0; stroke-linejoin: miter; stroke-miterlimit: 4; fill: rgb(63,61,86); fill-rule: nonzero; opacity: 1;" vector-effect="non-scaling-stroke"  transform=" translate(-493.32, -495.02)" d="M 509.09721 436.33656 L 513.67067 463.49262000000004 C 513.7216508577326 463.7953731799072 513.6882811539393 464.106318618862 513.57422 464.39136 L 477.69377 554.04471 C 477.4009866355174 554.7763440488292 476.6369930284028 555.2041327153023 475.86021162933923 555.0713880807864 C 475.08343023027567 554.9386434462705 474.5048545902116 554.281422323969 474.47164999999995 553.49408 L 472.95171999999997 517.4666400000001 C 472.94162058502076 517.2273735566523 472.98305242157284 516.9887304068947 473.07320999999996 516.7668700000002 L 505.90013 435.98487000000017 C 506.1815465927111 435.2923457893101 506.8885284056444 434.8708360891702 507.63156580050133 434.95257048149796 C 508.3746031953583 435.03430487382576 508.97305668290704 435.59941294700405 509.09721 436.33655000000016 Z" stroke-linecap="round" />
</g>
		<g transform="matrix(1 0 0 1 -107.08 40.99)"  >
<polygon style="stroke: none; stroke-width: 1; stroke-dasharray: none; stroke-linecap: butt; stroke-dashoffset: 0; stroke-linejoin: miter; stroke-miterlimit: 4; fill: rgb(33,150,243); fill-rule: nonzero; opacity: 1;" vector-effect="non-scaling-stroke"  points="13.64,-52.57 17.99,-29.24 -13.85,52.57 -17.99,26.25 13.64,-52.57 " />
</g>
		<g transform="matrix(1 0 0 1 -178.14 83.63)"  >
<path style="stroke: none; stroke-width: 1; stroke-dasharray: none; stroke-linecap: butt; stroke-dashoffset: 0; stroke-linejoin: miter; stroke-miterlimit: 4; fill: rgb(63,61,86); fill-rule: nonzero; opacity: 1;" vector-effect="non-scaling-stroke"  transform=" translate(-421.86, -533.63)" d="M 367.24714 553.62768 C 368.03056 556.68604 470.88731 559.99626 471.95396 559.0712400000001 C 472.9108775183753 557.885847730094 473.74015110898006 556.6028697416724 474.42803 555.2435800000001 C 475.50581 553.31843 476.5039 551.3875800000001 476.5039 551.3875800000001 L 474.8134 518.8584300000001 L 373.49208 508.0306 C 373.49208 508.0306 369.00951 535.17639 367.60222999999996 547.6476 C 367.2843535152655 549.6240883414622 367.16539554456585 551.6274626449386 367.24714 553.62768 Z" stroke-linecap="round" />
</g>
		<g transform="matrix(1 0 0 1 -160.84 84.8)"  >
<polygon style="stroke: none; stroke-width: 1; stroke-dasharray: none; stroke-linecap: butt; stroke-dashoffset: 0; stroke-linejoin: miter; stroke-miterlimit: 4; fill: rgb(0,0,0); fill-rule: nonzero; opacity: 0.1;" vector-effect="non-scaling-stroke"  points="22.4,-12.49 22.41,15.53 -22.41,12.35 -20.42,-15.54 22.4,-12.49 " />
</g>
		<g transform="matrix(1 0 0 1 -210.07 82.17)"  >
<polygon style="stroke: none; stroke-width: 1; stroke-dasharray: none; stroke-linecap: butt; stroke-dashoffset: 0; stroke-linejoin: miter; stroke-miterlimit: 4; fill: rgb(0,0,0); fill-rule: nonzero; opacity: 0.1;" vector-effect="non-scaling-stroke"  points="13.24,-5.02 13.51,-5.05 11.39,6.86 -13.51,5.09 -12.66,-6.86 13.24,-5.02 " />
</g>
		<g transform="matrix(1 0 0 1 -179.18 103.44)"  >
<path style="stroke: none; stroke-width: 1; stroke-dasharray: none; stroke-linecap: butt; stroke-dashoffset: 0; stroke-linejoin: miter; stroke-miterlimit: 4; fill: rgb(0,0,0); fill-rule: nonzero; opacity: 0.1;" vector-effect="non-scaling-stroke"  transform=" translate(-420.83, -553.44)" d="M 367.24714 553.62768 C 368.03056 556.68604 470.88731 559.99626 471.95396 559.0712400000001 C 472.9108775183753 557.885847730094 473.74015110898006 556.6028697416724 474.42803 555.2435800000001 L 367.60222999999996 547.6475800000001 C 367.28435217974203 549.6240749181002 367.16539420505893 551.627455988821 367.24714 553.62768 Z" stroke-linecap="round" />
</g>
		<g transform="matrix(1 0 0 1 -222.28 43.57)"  >
<path style="stroke: none; stroke-width: 1; stroke-dasharray: none; stroke-linecap: butt; stroke-dashoffset: 0; stroke-linejoin: miter; stroke-miterlimit: 4; fill: rgb(159,97,106); fill-rule: nonzero; opacity: 1;" vector-effect="non-scaling-stroke"  transform=" translate(-377.73, -493.57)" d="M 325.94633 505.05131 L 412.71026 521.24331 C 412.9273470848983 521.7866531643159 413.17221333392484 522.3184811755394 413.44389 522.83669 C 415.8282071098095 527.3221940089923 420.0055283954066 530.583853023694 424.93535 531.8092399999999 C 429.88659115206275 533.0545387851392 435.13436260021683 532.1037757661301 439.334 529.20057 C 447.14060833088615 523.8410012480044 449.4087403049627 513.3209906522812 444.50406828180786 505.22084848164553 C 439.59939625865303 497.1207063110098 429.2261995277893 494.25507633336895 420.859 498.68881999999996 C 420.1569705171064 499.06541811946386 419.4820060152653 499.4904252226677 418.839 499.96075999999994 L 343.478 474.2167599999999 L 339.62081 454.78782999999993 L 308.36136 456.856 L 311.60035999999997 489.42572 C 312.407438852455 497.23060118766864 318.2386410213923 503.5819301182969 325.94633 505.05131 Z" stroke-linecap="round" />
</g>
		<g transform="matrix(1 0 0 1 -270.2 -7.38)"  >
<path style="stroke: none; stroke-width: 1; stroke-dasharray: none; stroke-linecap: butt; stroke-dashoffset: 0; stroke-linejoin: miter; stroke-miterlimit: 4; fill: rgb(47,46,65); fill-rule: nonzero; opacity: 1;" vector-effect="non-scaling-stroke"  transform=" translate(-329.8, -442.62)" d="M 307.30246 471.3831 L 352.72464 456.45429 L 342.12912 426.03147 C 339.2242856402691 417.6909851427869 330.7334782732674 412.65596281695423 322.02178 414.10788 L 322.02178 414.10788 C 313.20246183351577 415.57773070469995 306.7704315312594 423.25610239512537 306.86926 432.19652 Z" stroke-linecap="round" />
</g>
		<g transform="matrix(1 0 0 1 -195.06 304.4)"  >
<path style="stroke: none; stroke-width: 1; stroke-dasharray: none; stroke-linecap: butt; stroke-dashoffset: 0; stroke-linejoin: miter; stroke-miterlimit: 4; fill: rgb(203,203,203); fill-rule: nonzero; opacity: 1;" vector-effect="non-scaling-stroke"  transform=" translate(-404.94, -754.4)" d="M 595.44291 755.4018 L 214.44290999999998 755.4018 C 213.8906252501692 755.4018 213.44290999999998 754.9540847498308 213.44290999999998 754.4018 C 213.44290999999998 753.8495152501691 213.8906252501692 753.4018 214.44290999999998 753.4018 L 595.44291 753.4018 C 595.9951947498308 753.4018 596.44291 753.8495152501691 596.44291 754.4018 C 596.44291 754.9540847498308 595.9951947498308 755.4018 595.44291 755.4018 Z" stroke-linecap="round" />
</g>
		<g transform="matrix(1 0 0 1 136.96 286.82)"  >
<path style="stroke: none; stroke-width: 1; stroke-dasharray: none; stroke-linecap: butt; stroke-dashoffset: 0; stroke-linejoin: miter; stroke-miterlimit: 4; fill: rgb(241,241,241); fill-rule: nonzero; opacity: 1;" vector-effect="non-scaling-stroke"  transform=" translate(-736.96, -736.82)" d="M 743.64988 723.89539 C 761.9236000000001 733.3527 770.0483 753.94419 770.0483 753.94419 C 770.0483 753.94419 748.5454400000001 759.20231 730.2717600000001 749.7450100000001 C 711.9980800000001 740.2877100000002 703.8733300000001 719.6962000000001 703.8733300000001 719.6962000000001 C 703.8733300000001 719.6962000000001 725.37615 714.43807 743.64988 723.89539 Z" stroke-linecap="round" />
</g>
		<g transform="matrix(1 0 0 1 150.15 272.99)"  >
<path style="stroke: none; stroke-width: 1; stroke-dasharray: none; stroke-linecap: butt; stroke-dashoffset: 0; stroke-linejoin: miter; stroke-miterlimit: 4; fill: rgb(241,241,241); fill-rule: nonzero; opacity: 1;" vector-effect="non-scaling-stroke"  transform=" translate(-750.15, -722.99)" d="M 737.80616 730.70767 C 748.7108099999999 748.15639 769.8921 754.58867 769.8921 754.58867 C 769.8921 754.58867 773.39342 732.73094 762.48877 715.2821799999999 C 751.5841200000001 697.8334199999998 730.40283 691.40118 730.40283 691.40118 C 730.40283 691.40118 726.90145 713.259 737.80616 730.70767 Z" stroke-linecap="round" />
</g>
		<g transform="matrix(1 0 0 1 146.44 304.01)"  >
<path style="stroke: none; stroke-width: 1; stroke-dasharray: none; stroke-linecap: butt; stroke-dashoffset: 0; stroke-linejoin: miter; stroke-miterlimit: 4; fill: rgb(203,203,203); fill-rule: nonzero; opacity: 1;" vector-effect="non-scaling-stroke"  transform=" translate(-746.44, -754.01)" d="M 803.44291 755.00527 L 689.44291 755.00527 C 688.8906252501691 755.00527 688.44291 754.5575547498308 688.44291 754.00527 C 688.44291 753.4529852501691 688.8906252501691 753.00527 689.44291 753.00527 L 803.44291 753.00527 C 803.9951947498308 753.00527 804.44291 753.4529852501691 804.44291 754.00527 C 804.44291 754.5575547498308 803.9951947498308 755.00527 803.44291 755.00527 Z" stroke-linecap="round" />
</g>
</g>
</g>
</svg>